<?xml version="1.0" encoding="UTF-8" standalone="no"?>
<svg
   viewBox="0 0 64 64"
   width="64"
   height="64"
   version="1.1"
   id="svg49"
   xmlns="http://www.w3.org/2000/svg"
   xmlns:svg="http://www.w3.org/2000/svg">
  <defs
     id="defs49" />
  <g
     fill="#0A2245"
     fill-opacity="1.00"
     stroke="None"
     id="g3">
    <path
       d="m 9,44 c -1.5608077,1.795045 -1.2336367,4.788496 -2.8548437,6.899219 -1.3238755,3.728768 2.8532578,1.062087 4.0544497,-0.248261 1.357163,-1.018604 3.634668,-3.487248 5.172477,-2.110479 1.982577,2.875414 4.369242,5.28013 7.528175,6.73723 2.073614,1.441752 4.422594,1.622021 6.466617,2.246666 5.59053,1.051619 13.844397,-0.268912 16.858281,-1.710156 3.032237,-1.426197 4.959015,-2.515955 6.765679,-4.82828 2.3632,-1.912417 3.265062,-4.083034 4.342989,-6.60373 C 59.222044,40.618534 60.247932,36.431139 60,32.216512 59.96446,30.282403 60.05467,28.333454 59.9984,26.418437 59.541493,23.980382 58.681407,22.025073 58,20 56.749968,17.844201 55.53276,16.435298 53.50543,14.275742 51.815288,12.384562 49.767979,10.309841 47.6875,9.01875 45.755886,7.7864128 45.976828,7.8523374 43.119797,6.6545358 40.751168,5.32621 38.42486,5.4323625 34.737652,5.5435391 30.3818,5.3940852 29.009046,6.2307641 25.064479,8.2499262 18.520324,11.380216 13.74675,17.39814 11,24 8.4796411,24.079053 4.7728591,20.616243 3.1217384,23.318096 5.3029848,28.937313 10.04524,33.795166 9.9277549,40.134757 9.8737699,41.467808 9.5461064,42.784271 9,44 Z m 46,-2 c -1.274515,3.041936 -3.141621,5.65825 -5.55835,7.903084 C 46.095104,53.026311 41.731558,54.64913 37,55 c -3.0881,0.138431 -3.36211,-0.863383 -5.529161,-0.09233 -4.686085,-0.555612 -9.0365,-3.241453 -11.684745,-7.135637 -2.79796,-1.908531 0.401736,-4.600692 1.919091,-6.19149 1.170078,-1.903706 2.044307,-3.896555 4.687048,-2.456155 2.693375,0.86062 6.813586,1.504392 8.183951,-1.847592 1.149037,-2.794994 -2.679787,1.124103 -4.222082,0.710193 -2.736524,0.968781 -5.460494,-1.262985 -6.155665,-3.851733 -0.737797,-2.408668 4.182399,-1.452333 4.542102,-3.571591 0.443264,-1.283745 0.673069,-7.185695 0.183875,-4.35253 -2.270572,1.644852 1.00314,4.326409 -2.032962,5.886678 -2.120702,2.106094 0.142787,6.391831 3.593622,4.636143 3.064746,-1.87578 2.132377,-5.852757 2.086471,-8.839168 C 32.470948,25.698984 35.243622,24.29442 32.058914,23.170586 28.960461,22.019139 25.17616,23.9854 24,27 22.146569,28.217745 24.068,32.826759 21.893241,32.642692 20.773728,29.09622 17.170001,27.353496 14,26 16.510895,16.653193 25.241234,8.7511752 35.134152,8.5704226 49.330449,8.5635482 60.667969,24.264959 56.742539,37.78398 56.323614,39.249258 55.73556,40.665482 55,42 Z M 13,28 c 1.488248,2.505767 5.031507,1.938544 6,5 1.740329,2.237948 1.157032,5.043689 -0.280909,7.064117 C 17.371215,43.4667 13.766804,44.968042 11,47 11.713733,42.807978 14.796473,38.483362 12.713661,34.223862 11.408996,32.155128 9.4229178,30.66618 8.5799951,28.288398 7.5552886,26.560598 8.0825746,25.416454 9.8140625,26.947461 10.790274,27.501117 11.850126,28.016561 13,28 Z"
       id="path3"
              style="fill:#2d2921;fill-opacity:1" />
  </g>
  <g
     fill="#43737E"
     fill-opacity="1.00"
     stroke="None"
     id="g7">
    <path
       d=" M 47.00 9.00  C 46.74 8.88 46.25 8.25 46.00 8.00 C 46.26 8.12 46.65 8.97 47.00 9.00 Z"
       id="path7" />
  </g>
  <g
     fill="#1294E9"
     fill-opacity="1.00"
     stroke="None"
     id="g8">
    <path
       d="m 26,11 c -5.39,3.31 -8.71,15.16 -2,16 1.34,-3.82 7.774791,-6.044791 9.934791,-1.934791 C 34.984791,24.835209 34.74,26.2 34,26 c 2.96,2.67 2.05,6.73 1,10 -1.83,7.71 -10.86,0.5 -12,3 2.34,2.58 5.79,1.99 9,2 3.73,-0.09 5.6,-4.06 9,-5 2.86,4.86 8.55,6.69 14,6 C 64.7,24.39 44.59,0.91 26,11 M 47,38 C 43.12,38.22 42.377713,32.074791 44.032604,29.934791 44.186461,28.654791 44.77,27.28 46,27 c 0.55,-1.46 2.4,-2.18 2,-4 11.68,-2.23 7.61,21.82 -1,15 z"
       id="path8"
        />
  </g>
  <g
     fill="#025BB1"
     fill-opacity="1.00"
     stroke="None"
     id="g11">
    <path
       d=" M 24.00 27.00  C 17.29 26.16 20.61 14.31 26.00 11.00 C 20.23 14.08 15.62 19.75 14.00 26.00 C 17.33 27.46 20.94 29.12 22.00 33.00 C 24.20 31.90 22.05 28.55 24.00 27.00 Z"
       id="path11" />
  </g>
  <g
     fill="#537984"
     fill-opacity="1.00"
     stroke="None"
     id="g13">
    <path
       d=" M 58.00 20.00  C 57.97 19.65 57.24 19.26 57.00 19.00 C 57.26 19.13 57.88 19.74 58.00 20.00 Z"
       id="path13" />
  </g>
  <g
     fill="#021B41"
     fill-opacity="1.00"
     stroke="None"
     id="g15">
    <path
       d=" M 46.00 27.00  C 48.60 27.55 48.54 31.48 46.00 32.00 C 45.43 32.94 44.85 33.82 45.00 35.00 C 44.36 37.03 46.69 37.06 48.00 37.00 C 51.10 34.25 52.17 29.67 50.00 26.00 C 48.33 26.12 49.51 22.99 50.00 25.00 C 56.50 25.98 54.84 38.78 48.00 38.00 C 47.50 37.98 47.00 38.00 47.00 38.00 C 55.61 44.82 59.68 20.77 48.00 23.00 C 48.40 24.82 46.55 25.54 46.00 27.00 Z"
       id="path15" />
  </g>
  <g
     fill="#94C5D4"
     fill-opacity="1.00"
     stroke="None"
     id="g17">
    <path
       d=" M 26.00 27.00  C 25.77 27.35 26.00 28.00 26.00 28.00 C 26.50 28.00 27.58 27.82 28.00 28.00 C 28.03 26.86 29.53 26.28 29.00 25.00 C 27.58 24.79 26.44 25.71 26.00 27.00 Z"
       id="path17" />
  </g>
  <g
     fill="#D1D6DA"
     fill-opacity="1.00"
     stroke="None"
     id="g18">
    <path
       d="m 30,37 c -0.24,0.32 0,1 0,1 1.92,0.01 3.156978,-1.094374 4.836978,-1.804374 1.05,-3.27 2.677296,-8.145109 -0.282704,-10.815109 -0.25,-0.25 -0.912922,-0.739165 -0.912922,-0.739165 C 30.011352,26.111352 35.5,34.32 30,37 Z"
       id="path18"
        />
  </g>
  <g
     fill="#CBCDD0"
     fill-opacity="1.00"
     stroke="None"
     id="g20">
    <path
       d="M 49.217496,25.413122 C 51.387496,29.083122 51.1,34.25 48,37 c -0.24,0.32 0,1 0,1 6.84,0.78 8.826043,-12.606878 1.347913,-13.684691 0,0 -0.350417,0.717813 -0.130417,1.097813 z"
       id="path20"
        />
  </g>
  <g
     fill="#E2B035"
     fill-opacity="1.00"
     stroke="None"
     id="g21">
    <path
       d=" M 10.00 31.00  C 10.22 31.25 11.00 31.00 11.00 31.00 C 14.70 33.00 17.09 37.14 15.00 41.00 C 16.82 41.55 17.47 39.25 19.00 39.00 C 20.91 37.89 20.06 34.55 19.00 33.00 C 18.79 32.75 18.00 33.00 18.00 33.00 C 16.70 35.39 11.48 29.99 13.00 29.00 C 12.75 28.75 13.00 28.00 13.00 28.00 C 11.08 28.01 9.68 26.71 8.00 26.00 C 7.99 27.92 9.29 29.32 10.00 31.00 M 19.00 35.00  C 19.33 38.42 15.54 35.86 19.00 35.00 Z"
       id="path21" />
  </g>
  <g
     fill="#E1E3E5"
     fill-opacity="1.00"
     stroke="None"
     id="g23">
    <path
       d="M 44.065209,29.934791 C 43.885209,30.674791 44.05,31.91 45,32 c 0.5,0.05 1,0 1,0 2.54,-0.52 2.6,-4.45 0,-5 -1.23,0.28 -1.878747,1.752604 -1.934791,2.934791 z"
       id="path23"
        />
  </g>
  <g
     fill="#4C4337"
     fill-opacity="1.00"
     stroke="None"
     id="g24">
    <path
       d=" M 13.00 29.00  C 13.25 29.25 14.00 29.00 14.00 29.00 C 13.75 28.75 13.34 28.15 13.00 28.00 C 13.00 28.00 12.75 28.75 13.00 29.00 Z"
       id="path24" />
  </g>
  <g
     fill="#F4F5F5"
     fill-opacity="1.00"
     stroke="None"
     id="g25">
    <path
       d="m 25,30 c -0.51,1.41 0.81,2.15 2,2 0.49,-0.06 1,0 1,0 1.57,-0.42 1.34,-3.53 0,-4 -0.42,-0.18 -1.5,0 -2,0 0,0 -0.13833,0.5199 -0.47833,0.7499 C 25.40167,29.2199 24.96,29.5 25,30 Z"
       id="path25"
        />
  </g>
  <g
     fill="#FBF5E3"
     fill-opacity="1.00"
     stroke="None"
     id="g27">
    <path
       d=" M 18.00 33.00  C 17.70 31.75 16.17 31.29 16.00 30.00 C 16.00 30.00 15.50 30.05 15.00 30.00 C 14.65 29.97 14.26 29.12 14.00 29.00 C 14.00 29.00 13.25 29.25 13.00 29.00 C 11.48 29.99 16.70 35.39 18.00 33.00 Z"
       id="path27" />
  </g>
  <g
     fill="#B69E56"
     fill-opacity="1.00"
     stroke="None"
     id="g28">
    <path
       d=" M 15.00 30.00  C 14.74 29.88 14.25 29.25 14.00 29.00 C 14.26 29.12 14.65 29.97 15.00 30.00 Z"
       id="path28" />
  </g>
  <g
     fill="#967E3B"
     fill-opacity="1.00"
     stroke="None"
     id="g29">
    <path
       d=" M 18.00 33.00  C 18.00 33.00 18.79 32.75 19.00 33.00 C 18.58 31.64 17.20 30.67 16.00 30.00 C 16.17 31.29 17.70 31.75 18.00 33.00 Z"
       id="path29" />
  </g>
  <g
     fill="#8CBAC8"
     fill-opacity="1.00"
     stroke="None"
     id="g30">
    <path
       d=" M 30.00 38.00  C 30.00 38.00 29.76 37.32 30.00 37.00 C 28.69 37.06 26.36 37.03 27.00 35.00 C 25.14 34.54 26.84 32.96 27.00 32.00 C 25.81 32.15 24.49 31.41 25.00 30.00 C 22.06 32.78 25.86 39.45 30.00 38.00 Z"
       id="path30" />
  </g>
  <g
     fill="#8EC7E5"
     fill-opacity="1.00"
     stroke="None"
     id="g31">
    <path
       d="m 47,38 c 0,0 0.5,-0.02 1,0 0,0 -0.24,-0.68 0,-1 -1.31,0.06 -3.607396,-0.0026 -2.967396,-2.032604 -0.06676,-1.242505 0.622505,-1.844374 0.782505,-2.804374 C 44.865109,32.073022 43.82,30.74 44,30 c -2.47,2.14 -0.88,8.22 3,8 z"
       id="path31"
       />
  </g>
  <g
     fill="#C58B19"
     fill-opacity="1.00"
     stroke="None"
     id="g33">
    <path
       d="M 10.836978,32.130417 C 15.786978,36.830417 12,41.68 11,47 14.030417,45.010417 18.894274,42.513539 19.554274,38.543539 18.024274,38.793539 16.82,41.55 15,41 c 2.09,-3.86 -0.234791,-8.032604 -3.934791,-10.032604 0,0 -1.9858438,-0.124692 -0.228231,1.163021 z"
       id="path33"
      />
  </g>
  <g
     fill="#FBEFD3"
     fill-opacity="1.00"
     stroke="None"
     id="g36">
    <path
       d=" M 19.00 35.00  C 15.54 35.86 19.33 38.42 19.00 35.00 Z"
       id="path36" />
  </g>
  <g
     fill="#F0CA93"
     fill-opacity="1.00"
     stroke="None"
     id="g37">
    <path
       d=" M 32.00 41.00  C 31.74 42.39 29.95 41.78 29.00 42.00 C 28.86 42.05 29.00 43.00 29.00 43.00 C 18.78 47.56 29.94 55.16 37.00 53.00 C 36.92 54.26 34.94 53.56 35.00 55.00 C 35.50 55.00 36.50 55.01 37.00 55.00 C 42.91 54.96 48.55 51.81 52.00 47.00 C 52.20 46.68 52.79 46.26 53.00 46.00 C 53.66 44.64 54.27 43.34 55.00 42.00 C 49.55 42.69 43.86 40.86 41.00 36.00 C 37.60 36.94 35.73 40.91 32.00 41.00 M 40.00 38.00  C 46.28 38.51 39.15 45.01 40.00 38.00 M 46.00 43.00  C 44.92 49.61 31.55 50.33 30.00 44.00 C 34.91 47.93 41.70 47.71 46.00 43.00 Z"
       id="path37" />
  </g>
  <g
     fill="#FCF2E3"
     fill-opacity="1.00"
     stroke="None"
     id="g38">
    <path
       d=" M 40.00 38.00  C 39.15 45.01 46.28 38.51 40.00 38.00 Z"
       id="path38" />
  </g>
  <g
     fill="#2261B4"
     fill-opacity="1.00"
     stroke="None"
     id="g39">
    <path
       d=" M 19.00 47.00  C 19.80 46.87 20.11 45.91 21.00 46.00 C 23.37 45.03 25.39 43.25 28.00 43.00 C 28.27 42.87 28.65 42.11 29.00 42.00 C 29.95 41.78 31.74 42.39 32.00 41.00 C 28.79 40.99 25.34 41.58 23.00 39.00 C 22.80 41.69 16.97 44.52 19.00 47.00 Z"
       id="path39" />
  </g>
  <g
     fill="#8573A2"
     fill-opacity="1.00"
     stroke="None"
     id="g40">
    <path
       d=" M 28.00 43.00  C 28.47 42.89 29.00 43.00 29.00 43.00 C 29.00 43.00 28.86 42.05 29.00 42.00 C 28.65 42.11 28.27 42.87 28.00 43.00 Z"
       id="path40" />
  </g>
  <g
     fill="#D88663"
     fill-opacity="1.00"
     stroke="None"
     id="g41">
    <path
       d=" M 21.00 46.00  C 20.87 46.80 19.91 47.11 20.00 48.00 C 22.99 52.48 28.62 55.27 34.00 55.00 C 34.50 54.97 35.00 55.00 35.00 55.00 C 34.94 53.56 36.92 54.26 37.00 53.00 C 29.94 55.16 18.78 47.56 29.00 43.00 C 29.00 43.00 28.47 42.89 28.00 43.00 C 25.39 43.25 23.37 45.03 21.00 46.00 Z"
       id="path41" />
  </g>
  <g
     fill="#172541"
     fill-opacity="1.00"
     stroke="None"
     id="g42">
    <path
       d=" M 46.00 43.00  C 41.70 47.71 34.91 47.93 30.00 44.00 C 31.55 50.33 44.92 49.61 46.00 43.00 Z"
       id="path42" />
  </g>
  <g
     fill="#6B8391"
     fill-opacity="1.00"
     stroke="None"
     id="g43">
    <path
       d=" M 8.00 45.00  C 8.06 44.76 8.84 44.34 9.00 44.00 C 8.84 44.27 8.07 44.65 8.00 45.00 Z"
       id="path43" />
  </g>
  <g
     fill="#AC7B86"
     fill-opacity="1.00"
     stroke="None"
     id="g44">
    <path
       d=" M 19.00 47.00  C 19.22 47.30 19.79 47.73 20.00 48.00 C 19.91 47.11 20.87 46.80 21.00 46.00 C 20.11 45.91 19.80 46.87 19.00 47.00 Z"
       id="path44" />
  </g>
  <g
     fill="#736458"
     fill-opacity="1.00"
     stroke="None"
     id="g45">
    <path
       d=" M 52.00 47.00  C 52.21 46.73 52.82 46.32 53.00 46.00 C 52.79 46.26 52.20 46.68 52.00 47.00 Z"
       id="path45" />
  </g>
  <g
     fill="#618B97"
     fill-opacity="1.00"
     stroke="None"
     id="g47">
    <path
       d=" M 24.00 56.00  C 23.74 55.89 23.33 55.17 23.00 55.00 C 23.27 55.17 23.65 55.89 24.00 56.00 Z"
       id="path47" />
  </g>
  <g
     fill="#6D8490"
     fill-opacity="1.00"
     stroke="None"
     id="g49">
    <path
       d=" M 46.00 56.00  C 46.35 55.87 46.74 55.21 47.00 55.00 C 46.68 55.18 46.27 55.87 46.00 56.00 Z"
       id="path49" />
  </g>
</svg>
